<svg xmlns="http://www.w3.org/2000/svg" viewBox="0 0 40.75 11.36"><defs><style>.cls-1{fill:#fff;}</style></defs><g id="Layer_2" data-name="Layer 2"><g id="Layer_1-2" data-name="Layer 1"><path class="cls-1" d="M8.86,6.46A3.53,3.53,0,0,0,8,5.26a2.75,2.75,0,0,0,.5-.88,2.75,2.75,0,0,0,.18-1.06A3.2,3.2,0,0,0,8.42,2a3.09,3.09,0,0,0-.71-1,3.2,3.2,0,0,0-1-.71A3.13,3.13,0,0,0,5.4,0H.34A.3.3,0,0,0,.09.12.39.39,0,0,0,0,.38V11a.3.3,0,0,0,.09.25.33.33,0,0,0,.25.08H5.85a3.13,3.13,0,0,0,1.28-.27,3.3,3.3,0,0,0,1.06-.75,3.45,3.45,0,0,0,.72-1.09A3.08,3.08,0,0,0,9.18,8,3.58,3.58,0,0,0,8.86,6.5M3,2.28H4.59a1.27,1.27,0,0,1,.47.09,1.31,1.31,0,0,1,.37.24A1,1,0,0,1,5.66,3a1,1,0,0,1,.09.43,1,1,0,0,1-.09.44.92.92,0,0,1-.24.35,1,1,0,0,1-.37.23,1.27,1.27,0,0,1-.48.08H3Zm3.11,6a1.33,1.33,0,0,1-.62.7A1,1,0,0,1,5,9.09H3V6.55H5a.84.84,0,0,1,.47.11,1.4,1.4,0,0,1,.38.3,1.25,1.25,0,0,1,.24.4,1.18,1.18,0,0,1,.09.46,1.27,1.27,0,0,1-.09.47"/><path class="cls-1" d="M19.35,11,15.43.83l-.12-.3L15.16.25a.3.3,0,0,0-.32-.16H13a.34.34,0,0,0-.21.08.93.93,0,0,0-.16.18l-.12.24-.09.24L8.44,11h0v.09a.23.23,0,0,0,.08.17.35.35,0,0,0,.24.06h2.41a.4.4,0,0,0,.42-.29c.21-.58.41-1.16.6-1.73s.38-1.16.56-1.74l.57-1.74c.19-.57.39-1.15.6-1.73l2.32,6.94a.4.4,0,0,0,.4.29H19.1c.19,0,.28-.07.28-.21a.06.06,0,0,0,0-.06V11"/><path class="cls-1" d="M30.14,10.92,26.56,5.58,30.07.34a.32.32,0,0,0,.08-.2V.07H27.28a.52.52,0,0,0-.45.29L24.94,3.14,23.07.33A.51.51,0,0,0,22.68,0H19.81a.08.08,0,0,0-.07.08.24.24,0,0,0,0,.12l.07.11L21.58,3l1.73,2.61-3.43,5.1-.15.24-.12.23v.07a.12.12,0,0,0,.05.1h2.82a.4.4,0,0,0,.24-.07.68.68,0,0,0,.17-.21L24.94,8,27,11.08a.83.83,0,0,0,.16.21.42.42,0,0,0,.24.07h2.73c.09,0,.14,0,.14-.11a.34.34,0,0,0-.05-.17l-.1-.18"/><path class="cls-1" d="M40.68.08H37.51l-.06.06-.08.14-1.86,4L33.68.29,33.59.15,33.53.09H30.39a.11.11,0,0,0,0,.08.5.5,0,0,0,.08.2l3.6,6.38V11a.44.44,0,0,0,.09.27.33.33,0,0,0,.23.09h2.29a.31.31,0,0,0,.35-.29A.09.09,0,0,0,37,11V6.76L40.65.36a.4.4,0,0,0,.09-.2.11.11,0,0,0,0-.08"/></g></g></svg>