<?xml version="1.0" encoding="utf-8"?>
<!-- Generator: Adobe Illustrator 27.0.0, SVG Export Plug-In . SVG Version: 6.00 Build 0)  -->
<svg version="1.1" id="Layer_1" xmlns="http://www.w3.org/2000/svg" xmlns:xlink="http://www.w3.org/1999/xlink" x="0px" y="0px"
	 viewBox="0 0 108.7 16.7" style="enable-background:new 0 0 108.7 16.7;" xml:space="preserve">
<style type="text/css">
	.st0{fill:#FFFFFF;}
	.st1{fill:#AD2528;}
	.st2{fill:#828282;}
</style>
<g>
	<g>
		<path class="st0" d="M9.2,7.7C9,7.2,8.7,6.8,8.3,6.5c0.2-0.3,0.4-0.6,0.5-0.9C8.9,5.2,9,4.9,9,4.5C9,4,8.9,3.5,8.7,3.1
			C8.5,2.7,8.3,2.4,8,2C7.7,1.7,7.3,1.5,6.9,1.3C6.5,1.1,6.1,1.1,5.6,1.1H0.4c-0.1,0-0.2,0-0.3,0.1C0,1.2,0,1.3,0,1.4v11
			c0,0.1,0,0.2,0.1,0.3c0.1,0.1,0.1,0.1,0.3,0.1h5.7c0.5,0,0.9-0.1,1.3-0.3c0.4-0.2,0.8-0.4,1.1-0.8c0.3-0.3,0.6-0.7,0.7-1.1
			c0.2-0.4,0.3-0.9,0.3-1.4C9.5,8.7,9.4,8.2,9.2,7.7 M3.1,3.4h1.7c0.2,0,0.3,0,0.5,0.1c0.1,0.1,0.3,0.1,0.4,0.2
			C5.7,3.8,5.8,4,5.9,4.1C5.9,4.2,6,4.4,6,4.5c0,0.2,0,0.3-0.1,0.5C5.8,5.1,5.7,5.3,5.6,5.4C5.5,5.5,5.4,5.5,5.2,5.6
			C5.1,5.6,4.9,5.7,4.7,5.7H3.1V3.4z M6.3,9.6C6.2,9.8,6.1,9.9,6,10c-0.1,0.1-0.2,0.2-0.4,0.3c-0.1,0.1-0.3,0.1-0.5,0.1H3.1V7.8h2.1
			c0.2,0,0.3,0,0.5,0.1C5.8,8,5.9,8.1,6,8.2c0.1,0.1,0.2,0.3,0.3,0.4C6.3,8.8,6.4,9,6.4,9.1C6.4,9.3,6.3,9.4,6.3,9.6z"/>
		<path class="st0" d="M20.3,12.4L16.2,1.8c0-0.1-0.1-0.2-0.1-0.3c0-0.1-0.1-0.2-0.2-0.3c-0.1-0.1-0.2-0.2-0.3-0.2h-2
			c-0.1,0-0.2,0-0.2,0.1c-0.1,0.1-0.1,0.1-0.2,0.2c0,0.1-0.1,0.2-0.1,0.2c0,0.1-0.1,0.2-0.1,0.2L9,12.4v0c0,0,0,0,0,0.1
			c0,0.1,0,0.1,0.1,0.2c0.1,0,0.1,0.1,0.3,0.1h2.5c0.2,0,0.4-0.1,0.4-0.3c0.2-0.6,0.4-1.2,0.6-1.8c0.2-0.6,0.4-1.2,0.6-1.8
			c0.2-0.6,0.4-1.2,0.6-1.8c0.2-0.6,0.4-1.2,0.6-1.8l2.4,7.2c0.1,0.2,0.2,0.3,0.4,0.3H20c0.2,0,0.3-0.1,0.3-0.2
			C20.3,12.5,20.3,12.5,20.3,12.4C20.3,12.5,20.3,12.5,20.3,12.4"/>
		<path class="st0" d="M31.4,12.3l-3.7-5.5l3.6-5.4c0.1-0.1,0.1-0.1,0.1-0.2c0,0,0-0.1-0.1-0.1c0,0-0.1,0-0.1,0c-0.1,0-0.1,0-0.2,0
			H31h-2.5c-0.2,0-0.3,0.1-0.5,0.3l-2,2.9l-1.9-2.9C24,1.1,23.9,1,23.7,1h-2.7c-0.1,0-0.1,0-0.2,0c0,0-0.1,0-0.1,0.1
			c0,0,0,0.1,0,0.1c0,0,0,0.1,0.1,0.1c0.6,0.9,1.2,1.8,1.8,2.7c0.6,0.9,1.2,1.8,1.8,2.7l-3.6,5.3c-0.1,0.1-0.1,0.2-0.2,0.2
			c0,0.1-0.1,0.2-0.1,0.2c0,0,0,0,0,0.1c0,0,0,0.1,0,0.1c0,0,0.1,0,0.1,0h0.1h2.7c0.1,0,0.2,0,0.2-0.1c0.1-0.1,0.1-0.1,0.2-0.2
			l2.1-3.2l2.1,3.2c0.1,0.1,0.1,0.2,0.2,0.2c0.1,0.1,0.2,0.1,0.2,0.1h2.8c0.1,0,0.1,0,0.1-0.1c0,0,0-0.1-0.1-0.2
			C31.5,12.4,31.5,12.4,31.4,12.3"/>
		<path class="st0" d="M42.3,1.1c0,0-0.1,0-0.1,0h-3c0,0-0.1,0-0.1,0c0,0,0,0-0.1,0c0,0,0,0-0.1,0.1c0,0,0,0.1-0.1,0.1L37,5.4
			l-1.9-4.1C35,1.2,35,1.2,35,1.2c0,0,0-0.1-0.1-0.1c0,0,0,0-0.1,0c0,0,0,0-0.1,0h-3c0,0-0.1,0-0.1,0c0,0,0,0.1,0,0.1
			c0,0.1,0,0.1,0.1,0.2L35.5,8v4.4c0,0.1,0,0.2,0.1,0.3c0.1,0.1,0.1,0.1,0.2,0.1h2.4c0.2,0,0.4-0.1,0.4-0.4V8l3.7-6.6
			C42.3,1.3,42.4,1.2,42.3,1.1C42.4,1.1,42.3,1.1,42.3,1.1"/>
	</g>
	<path class="st1" d="M51.1,12.4c0.8-4.8,1.3-8.5,1.5-11.1H53c0.3,0.7,1,2.1,2.2,4.2c1.2,2.1,2,3.6,2.5,4.6l4.9-8.7h0.2
		c0.3,3.1,0.7,6.8,1.2,11.1c-0.4,0-0.6-0.1-0.7-0.1s-0.4,0-0.8,0.1c-0.1-1.2-0.2-2.8-0.4-4.8s-0.3-3.1-0.3-3.5
		c-1.6,2.6-3.1,5.4-4.3,8.2h-0.2c-0.9-1.9-2.3-4.6-4.2-8.2c-0.5,4.3-0.7,7-0.7,8.2l-0.5-0.1C51.5,12.3,51.3,12.3,51.1,12.4"/>
	<path class="st1" d="M65.4,8.5c-0.1-1.1,0.3-2.2,1.1-3c1.6-1.4,4.1-1.4,5.7,0c0.8,0.8,1.2,1.8,1.1,2.9c0.1,1.1-0.3,2.2-1.1,3
		c-1.6,1.5-4.1,1.5-5.8,0C65.7,10.7,65.3,9.6,65.4,8.5 M66.8,8.5c-0.1,0.9,0.2,1.8,0.6,2.6c0.8,1,2.3,1.2,3.4,0.4
		c0.2-0.1,0.3-0.3,0.4-0.4c0.5-0.8,0.7-1.7,0.6-2.6c0.1-0.9-0.2-1.8-0.6-2.6c-0.4-0.6-1.1-1-1.9-0.9C67.7,5,66.8,6.2,66.8,8.5"/>
	<path class="st1" d="M74.8,0c0.2,0,0.5,0.1,0.7,0.1c0.3,0,0.5,0,0.8-0.1c-0.1,1.8-0.1,3.9-0.1,6.2c0.5-1.1,1.6-1.8,2.8-1.8
		c0.9,0,1.8,0.3,2.4,1c0.6,0.8,0.9,1.8,0.9,2.8c0.1,1.1-0.3,2.2-1,3.1c-1,1.4-3,1.7-4.4,0.6c-0.2-0.2-0.4-0.4-0.6-0.6
		c-0.6,0.4-0.9,0.7-1.1,0.9h-0.3c0.1-1,0.1-2.6,0.1-4.7v-3C75,2.8,75,1.3,74.8,0 M76.1,8.8c0,2.2,0.8,3.2,2.3,3.2
		c0.7,0,1.4-0.4,1.7-1c0.5-0.8,0.7-1.8,0.7-2.7c0-0.8-0.2-1.6-0.6-2.3c-0.3-0.6-0.9-0.9-1.6-0.9c-0.7,0-1.4,0.3-1.8,0.9
		C76.2,6.8,76,7.8,76.1,8.8"/>
	<path class="st1" d="M84.4,1.8c0-0.2,0.1-0.4,0.2-0.6C84.7,1.1,85,1,85.2,1c0.2,0,0.4,0.1,0.6,0.2C85.9,1.4,86,1.6,86,1.8
		c0,0.2-0.1,0.4-0.2,0.6c-0.1,0.2-0.3,0.2-0.6,0.2c-0.2,0-0.4-0.1-0.6-0.2C84.4,2.2,84.3,2,84.4,1.8 M84.4,12.4
		c0.1-1,0.1-1.9,0.1-2.9V7.6c0-1,0-2-0.1-3c0.2,0.1,0.5,0.1,0.7,0.1c0.2,0,0.5,0,0.7-0.1c-0.1,1-0.1,2.1-0.1,3.1v1.8
		c0,0.7,0,1.7,0.1,2.9C85.4,12.3,84.9,12.3,84.4,12.4"/>
	<path class="st1" d="M90.4,12.4c-0.2,0-0.5-0.1-0.7-0.1c-0.2,0-0.5,0-0.7,0.1c0.1-1,0.1-2.4,0.1-4.3V4.8c0-2.1,0-3.7-0.1-4.7
		c0.2,0,0.5,0.1,0.7,0.1c0.2,0,0.5,0,0.7-0.1c-0.1,1-0.1,2.5-0.1,4.6V8C90.3,9.8,90.3,11.2,90.4,12.4"/>
	<path class="st1" d="M93.4,1.8c0-0.2,0.1-0.4,0.2-0.6c0.3-0.3,0.8-0.3,1.1,0c0,0,0,0,0,0c0.3,0.3,0.3,0.8,0,1.1c0,0,0,0,0,0
		c-0.1,0.2-0.3,0.2-0.6,0.2c-0.2,0-0.4-0.1-0.6-0.2C93.5,2.2,93.4,2,93.4,1.8 M93.5,12.4c0.1-1,0.1-1.9,0.1-2.9V7.6c0-1,0-2-0.1-3
		c0.2,0.1,0.5,0.1,0.7,0.1c0.3,0,0.5,0,0.8-0.1c-0.1,1-0.1,2.1-0.1,3.1v1.8c0,0.7,0,1.7,0.1,2.9c-0.2,0-0.5-0.1-0.7-0.1
		C94,12.3,93.8,12.3,93.5,12.4"/>
	<path class="st1" d="M96.8,5.4c0-0.1,0-0.2,0-0.4c0-0.1,0-0.2,0-0.3c0.5,0,0.8,0,1.1,0l-0.1-1.8l1.3-0.6h0.1l-0.1,2.4
		c0.8,0,1.4,0,1.7,0c0,0.1,0,0.2,0,0.3c0,0.1,0,0.2,0,0.4c-0.4,0-1,0-1.7,0C99,7,99,8.4,99,9.7c0,0.6,0.1,1.2,0.3,1.8
		c0.2,0.3,0.6,0.5,1,0.5c0.2,0,0.5,0,0.7-0.1v0.4c-0.4,0.2-0.8,0.3-1.2,0.2c-1.4,0-2-0.7-2-2.1c0-0.2,0-0.9,0.1-2.3s0.1-2.3,0.1-2.7
		C97.7,5.4,97.3,5.4,96.8,5.4"/>
	<path class="st1" d="M101.4,4.6c0.3,0.1,0.5,0.1,0.8,0.1c0.2,0,0.5,0,0.7-0.1c0.7,2.1,1.5,4.2,2.4,6.3c0.3-0.7,0.8-1.8,1.3-3.2
		s0.9-2.5,1.1-3.1c0.2,0,0.4,0.1,0.6,0.1c0.2,0,0.4,0,0.5-0.1c-2.7,5.9-4.5,9.9-5.2,12.1c-0.2,0-0.4-0.1-0.6-0.1
		c-0.2,0-0.4,0-0.6,0.1c0.8-1.4,1.6-2.8,2.2-4.3C103.7,10.1,102.7,7.5,101.4,4.6"/>
	<rect x="46.4" y="1.1" class="st2" width="0.3" height="11.4"/>
</g>
</svg>
